<svg xmlns="http://www.w3.org/2000/svg" width="720" height="239" viewBox="0 0 720 239" fill="none"><path d="M686 0H688.88C694.51 17.22 695.81 34.51 695.77 52.79C695.77 53.2167 695.957 53.33 696.33 53.13C704.15 48.89 710.92 43.68 719.34 41.41C719.405 41.3949 719.473 41.3971 719.537 41.4164C719.6 41.4358 719.658 41.4716 719.704 41.5202C719.749 41.5688 719.781 41.6286 719.796 41.6935C719.812 41.7584 719.809 41.8262 719.79 41.89C716.06 53.21 705.22 54.73 697.16 63.03C697.045 63.1475 696.96 63.2912 696.912 63.4494C696.863 63.6075 696.852 63.7756 696.88 63.94C698.047 70.7 697.01 77.0433 693.77 82.97C693.711 83.0763 693.621 83.1622 693.512 83.2162C693.403 83.2703 693.28 83.2899 693.16 83.2726C693.04 83.2552 692.927 83.2017 692.838 83.1191C692.749 83.0365 692.687 82.9287 692.66 82.81C691.83 78.84 691.99 71.63 689.96 68.43C689.78 68.1433 689.547 68.0933 689.26 68.28C678.42 75.4 666.25 83.21 653.47 86.06C653.347 86.0889 653.22 86.0891 653.097 86.0607C652.974 86.0322 652.859 85.9759 652.761 85.8959C652.663 85.8159 652.584 85.7144 652.53 85.599C652.476 85.4837 652.449 85.3575 652.45 85.23C652.69 74.12 650.12 62.29 648.31 51.33C647.75 47.93 644.39 29.24 647.51 25.31C647.717 25.0567 647.857 24.77 647.93 24.45L648.62 21.5C648.753 20.9333 648.917 20.9233 649.11 21.47C651.743 28.79 653.37 35.3833 653.99 41.25C655.283 53.49 656.7 65.7133 658.24 77.92C658.287 78.2667 658.483 78.4367 658.83 78.43C671.94 78.09 666.11 61.75 669.71 53.61C669.808 53.3846 669.83 53.1333 669.773 52.8942C669.715 52.6551 669.581 52.4413 669.391 52.2852C669.201 52.1292 668.966 52.0393 668.72 52.0294C668.474 52.0194 668.232 52.0898 668.03 52.23L663.18 55.62C662.939 55.788 662.653 55.8804 662.359 55.8853C662.065 55.8903 661.776 55.8075 661.529 55.6477C661.283 55.4878 661.089 55.2581 660.974 54.9878C660.858 54.7175 660.825 54.4189 660.88 54.13C661.9 48.63 666.3 46.46 670.96 43.45C676.02 40.17 678.08 33.09 679.78 26.31C681.74 18.47 683.28 8.7 686 0ZM685.87 24.52C684.523 26.68 683.79 29.1167 683.67 31.83C683.656 32.1252 683.741 32.4166 683.91 32.6589C684.079 32.9012 684.323 33.0809 684.605 33.1699C684.887 33.2588 685.19 33.2522 685.468 33.1509C685.745 33.0497 685.982 32.8595 686.14 32.61C687.727 30.1233 687.973 27.46 686.88 24.62C686.607 23.9067 686.27 23.8733 685.87 24.52ZM686.67 39.39C676.65 46.31 674.11 59.65 670.98 70.75C670.887 71.0767 670.993 71.1633 671.3 71.01C678.307 67.51 684.663 63.0867 690.37 57.74C690.63 57.5 690.727 57.2067 690.66 56.86C689.47 51 689.99 45.22 687.89 39.77C687.847 39.6547 687.777 39.5508 687.688 39.4662C687.598 39.3817 687.491 39.3187 687.373 39.282C687.255 39.2454 687.131 39.2361 687.009 39.2548C686.887 39.2735 686.771 39.3197 686.67 39.39Z" fill="white"></path><path d="M601.23 83.3701C596.73 82.3701 591.93 88.8401 590.29 92.4701C590.156 92.7634 589.936 92.8667 589.63 92.7801C586.75 92.0201 583.813 91.7167 580.82 91.8701C580.583 91.8823 580.346 91.8461 580.124 91.7635C579.902 91.681 579.699 91.5538 579.527 91.39C579.356 91.2261 579.22 91.0289 579.127 90.8105C579.035 90.5921 578.988 90.3572 578.99 90.1201C579.07 74.5901 588.12 65.7601 598.73 54.2501C599.216 53.7167 599.383 53.8034 599.23 54.5101C597.15 64.1801 589.34 76.2201 585.51 82.8901C585.283 83.2901 585.396 83.4701 585.85 83.4301C587.196 83.3101 588.416 82.8367 589.51 82.0101C594.05 78.5701 599.92 73.8001 605.29 74.0101C605.623 74.0234 605.916 74.1334 606.17 74.3401C608.143 75.9667 609.46 78.0167 610.12 80.4901C610.226 80.9034 610.48 81.0234 610.88 80.8501C619.71 76.9201 623.91 68.2901 626.23 59.4501C628.47 50.9101 630.583 42.3667 632.57 33.8201C632.601 33.682 632.671 33.556 632.771 33.4565C632.872 33.357 632.999 33.2882 633.138 33.2579C633.277 33.2275 633.422 33.237 633.557 33.2852C633.692 33.3333 633.811 33.4182 633.9 33.5301C639.92 41.2401 641.63 52.9201 642.65 62.4301C644.31 78.0601 645.97 94.9801 644.44 110.63C644.406 110.983 644.223 111.217 643.89 111.33C641.99 111.963 640.83 113.263 640.41 115.23C640.27 115.897 640.116 115.9 639.95 115.24C636.57 101.93 636.72 87.4001 635.8 73.6901C635.792 73.5652 635.755 73.4438 635.694 73.335C635.632 73.2261 635.547 73.1326 635.444 73.0614C635.341 72.9903 635.223 72.9433 635.099 72.924C634.976 72.9047 634.849 72.9136 634.73 72.9501C624.98 75.8501 623.33 86.8001 620.17 97.1501C619.44 99.5401 618.06 101.6 616.8 103.7C616.64 103.973 616.43 104.013 616.17 103.82C611.45 100.31 615.69 90.4901 617.4 85.9401C617.438 85.8336 617.445 85.7186 617.421 85.6081C617.397 85.4977 617.342 85.3964 617.262 85.3159C617.183 85.2354 617.082 85.1791 616.972 85.1532C616.862 85.1274 616.747 85.1333 616.64 85.1701C598.6 91.6801 603.3 120.96 590.4 133.77C590.311 133.86 590.198 133.924 590.075 133.954C589.952 133.984 589.823 133.98 589.702 133.942C589.581 133.904 589.473 133.833 589.39 133.737C589.306 133.642 589.251 133.525 589.23 133.4C587.29 122.52 595.15 107.75 599.42 97.2101C599.494 97.0322 599.512 96.8362 599.472 96.6479C599.432 96.4596 599.335 96.2879 599.195 96.1556C599.055 96.0233 598.878 95.9366 598.688 95.907C598.498 95.8775 598.303 95.9064 598.13 95.9901L594.92 97.5101C594.68 97.6234 594.503 97.5601 594.39 97.3201C592.94 94.2701 601.4 88.5401 601.74 84.0501C601.766 83.6767 601.596 83.4501 601.23 83.3701ZM632.1 57.8901L630.46 64.7001C630.395 64.9724 630.423 65.2591 630.539 65.5146C630.654 65.7701 630.851 65.9799 631.098 66.1108C631.344 66.2417 631.627 66.2861 631.901 66.2371C632.175 66.188 632.424 66.0483 632.61 65.8401C634.26 64.0101 635.57 59.6101 633.38 57.5201C633.282 57.4267 633.162 57.3606 633.031 57.3283C632.9 57.2961 632.763 57.2988 632.633 57.3363C632.504 57.3737 632.386 57.4446 632.292 57.5418C632.199 57.639 632.132 57.7591 632.1 57.8901Z" fill="white"></path><path d="M660.46 140.04L677.76 139.99C677.886 139.99 678.01 140.027 678.116 140.095C678.222 140.163 678.306 140.26 678.359 140.375C678.412 140.49 678.43 140.617 678.413 140.742C678.395 140.867 678.342 140.984 678.26 141.08C657.35 165.29 632.36 185.28 611.06 209.11C610.991 209.186 610.945 209.279 610.929 209.38C610.913 209.481 610.927 209.585 610.97 209.679C611.012 209.773 611.081 209.853 611.168 209.91C611.255 209.967 611.356 209.998 611.46 210H618.99C619.55 210 619.62 210.19 619.2 210.57C608.5 220.21 598.02 230.27 586.45 238.84C586.385 238.883 586.307 238.903 586.229 238.897C586.151 238.891 586.077 238.859 586.02 238.806C585.962 238.753 585.924 238.682 585.912 238.605C585.899 238.528 585.912 238.449 585.95 238.38L602.6 211.56C602.767 211.287 602.853 210.99 602.86 210.67C602.98 204.803 604.17 199.15 606.43 193.71C610.757 183.29 615.103 172.87 619.47 162.45C620.337 160.377 621.127 157.627 621.84 154.2C621.933 153.78 621.793 153.677 621.42 153.89C610.107 160.41 599.377 167.78 589.23 176C588.803 176.347 588.45 176.287 588.17 175.82C579.68 161.71 572.81 146.48 566.12 131.39C566.082 131.306 566.022 131.235 565.946 131.183C565.87 131.132 565.781 131.103 565.689 131.1C565.598 131.097 565.507 131.12 565.427 131.166C565.348 131.212 565.283 131.279 565.24 131.36C558.5 143.54 557.9 157.29 552.65 169.8C552.53 170.1 552.307 170.25 551.98 170.25H537.78C537.127 170.25 536.887 169.933 537.06 169.3L559.75 85.7101C559.85 85.3367 560.003 85.3167 560.21 85.6501C563.277 90.6967 566.05 95.8834 568.53 101.21C575.59 116.35 582.52 131.81 589.32 147.59C589.371 147.708 589.445 147.815 589.538 147.903C589.632 147.991 589.742 148.058 589.862 148.102C589.982 148.145 590.11 148.163 590.237 148.154C590.364 148.145 590.488 148.11 590.6 148.05C633.46 125.41 674.83 100.53 713.18 70.8101C713.222 70.7767 713.274 70.7596 713.327 70.7616C713.38 70.7636 713.43 70.7846 713.47 70.8211C713.51 70.8575 713.537 70.9071 713.546 70.9616C713.555 71.0161 713.546 71.072 713.52 71.1201C698.29 96.1601 674.39 119.44 660.21 139.56C659.983 139.88 660.067 140.04 660.46 140.04Z" fill="white"></path><path d="M65.3501 141.76C66.2501 138.65 63.1701 133.13 61.2401 129.58C61.1201 129.36 60.9334 129.25 60.6801 129.25H0.920074C0.807459 129.251 0.696404 129.224 0.597478 129.17C0.498553 129.116 0.415047 129.038 0.354907 128.942C0.294768 128.847 0.259995 128.738 0.253898 128.626C0.247801 128.513 0.270582 128.401 0.320074 128.3C7.54007 113.25 16.1801 99.23 25.0901 85.14C25.1732 85.0069 25.2874 84.8956 25.4231 84.8156C25.5588 84.7355 25.7121 84.689 25.8701 84.68C71.0701 82.11 110.08 83.62 165.57 83.46C165.923 83.4533 166.197 83.6033 166.39 83.91C169.01 88.12 169.87 95 170.72 99.93C170.745 100.088 170.738 100.249 170.698 100.404C170.659 100.559 170.588 100.704 170.49 100.83C163.09 110.18 156.04 120.92 147.26 128.95C147.04 129.15 146.78 129.25 146.48 129.25H123.55C123.465 129.249 123.381 129.269 123.305 129.307C123.229 129.344 123.163 129.4 123.112 129.468C123.062 129.536 123.028 129.615 123.014 129.699C122.999 129.783 123.005 129.869 123.03 129.95L134.77 169.52C134.795 169.605 134.8 169.695 134.784 169.782C134.768 169.87 134.732 169.952 134.678 170.023C134.625 170.094 134.556 170.151 134.476 170.191C134.396 170.23 134.309 170.25 134.22 170.25H118.27C117.957 170.25 117.75 170.1 117.65 169.8C109.957 146.547 102.337 123.277 94.7901 99.99C93.7101 96.6633 92.2467 92.6333 90.4001 87.9C90.2534 87.5333 90.0367 87.4833 89.7501 87.75C83.4201 93.5 82.5001 103.82 72.0401 103.29C64.9401 102.93 57.8334 102.647 50.7201 102.44C46.0001 102.31 39.8701 104.22 38.7701 109.46C38.6901 109.82 38.8301 110.043 39.1901 110.13C49.2201 112.56 62.0901 111.17 72.3601 110.93C72.6616 110.924 72.958 111.008 73.211 111.172C73.4641 111.336 73.6623 111.572 73.7801 111.85C84.2601 136.95 93.1401 164.64 102.87 191.09C108.51 206.437 115.793 220.953 124.72 234.64C124.993 235.06 124.9 235.17 124.44 234.97C111.69 229.33 103.03 215.64 91.1201 208.12C90.9047 207.988 90.7399 207.787 90.6521 207.55C90.5643 207.313 90.5585 207.053 90.6357 206.812C90.7129 206.572 90.8685 206.364 91.0778 206.222C91.2871 206.08 91.5379 206.012 91.7901 206.03L97.8101 206.39C97.8998 206.397 97.9895 206.377 98.0681 206.333C98.1466 206.289 98.2106 206.223 98.2521 206.143C98.2936 206.064 98.3108 205.973 98.3016 205.884C98.2923 205.794 98.257 205.71 98.2001 205.64C78.0401 180.74 49.6701 159.42 31.7501 137.15C31.5234 136.87 31.5901 136.713 31.9501 136.68C42.3001 135.76 55.9901 135.36 64.6901 141.98C65.0167 142.227 65.2367 142.153 65.3501 141.76ZM141.22 103.03C133.4 102.91 122.24 101.27 114.94 103.99C114.62 104.11 114.53 104.327 114.67 104.64C117.917 111.927 120.18 119.51 121.46 127.39C121.472 127.465 121.504 127.535 121.553 127.593C121.601 127.652 121.664 127.697 121.735 127.723C121.806 127.749 121.882 127.757 121.957 127.744C122.032 127.731 122.102 127.699 122.16 127.65C130.12 120.99 135.37 111.78 141.44 103.48C141.653 103.187 141.58 103.037 141.22 103.03Z" fill="white"></path><path d="M200.17 116H230.52C230.906 116 231.05 116.19 230.95 116.57C230.17 119.543 229.27 122.437 228.25 125.25C222.836 140.123 217.4 154.987 211.94 169.84C211.813 170.2 211.923 170.453 212.27 170.6L234.01 179.77C234.09 179.804 234.177 179.821 234.264 179.818C234.351 179.816 234.437 179.794 234.515 179.755C234.593 179.716 234.662 179.661 234.716 179.592C234.77 179.524 234.809 179.445 234.83 179.36C235.75 175.62 233.46 169.17 233.46 164.84C233.46 164.5 233.62 164.27 233.94 164.15C238.83 162.36 245 157.84 249.7 157.17C250.08 157.117 250.29 157.28 250.33 157.66C251.883 172.88 253.883 188.04 256.33 203.14C256.436 203.787 256.176 204.013 255.55 203.82C233.32 196.85 211.47 187.15 189.26 178.7C189.16 178.662 189.078 178.589 189.028 178.493C188.979 178.397 188.965 178.286 188.99 178.18C192.35 163.75 199.13 150.16 202.03 135.74C202.103 135.4 201.983 135.153 201.67 135C197.62 133.03 190.56 134.26 186 134.24C185.6 134.233 185.343 134.04 185.23 133.66C180.456 117.387 176.876 100.853 174.49 84.06C174.436 83.6867 174.6 83.5 174.98 83.5H242.76C243.126 83.5 243.266 83.6767 243.18 84.03C241.68 90.32 238.93 96.11 237.05 102.32C236.963 102.607 236.77 102.75 236.47 102.75H199.15C198.974 102.749 198.801 102.787 198.641 102.86C198.482 102.933 198.34 103.039 198.226 103.173C198.112 103.306 198.028 103.462 197.98 103.631C197.933 103.8 197.922 103.977 197.95 104.15L199.78 115.67C199.794 115.761 199.841 115.845 199.912 115.905C199.984 115.965 200.075 115.999 200.17 116Z" fill="white"></path><path d="M272.7 152.9C275.767 151.36 278.587 149.437 281.16 147.13C292.77 136.74 304.28 123.89 316.99 116.3C317.06 116.26 317.141 116.241 317.222 116.245C317.302 116.249 317.38 116.277 317.446 116.325C317.511 116.372 317.562 116.438 317.591 116.513C317.62 116.588 317.627 116.671 317.61 116.75C315.54 125.8 323.24 133.8 316.11 142.12C310.32 148.88 302.99 153.84 295.87 159.06C283.05 168.47 272.76 180.87 259.36 189.32C258.973 189.567 258.75 189.46 258.69 189L245.44 84.07C245.432 83.9981 245.438 83.9251 245.459 83.8561C245.481 83.787 245.516 83.7234 245.564 83.6694C245.611 83.6155 245.669 83.5725 245.734 83.5433C245.799 83.5141 245.869 83.4993 245.94 83.5H393.23C393.53 83.5 393.687 83.6467 393.7 83.94C393.993 90.08 393.567 96.1667 392.42 102.2C392.353 102.567 392.133 102.75 391.76 102.75H369C368.817 102.749 368.64 102.817 368.503 102.941C368.367 103.065 368.28 103.235 368.26 103.42C365.98 127.18 367.14 150.4 364.84 169.73C364.8 170.077 364.603 170.25 364.25 170.25H348.34C348.231 170.25 348.127 170.207 348.05 170.13C347.973 170.053 347.93 169.949 347.93 169.84L348.01 104.83C348.01 104.73 347.99 104.631 347.952 104.539C347.914 104.447 347.858 104.363 347.788 104.293C347.717 104.222 347.633 104.166 347.541 104.128C347.449 104.09 347.35 104.07 347.25 104.07C333.1 104.02 327.29 94.16 318.42 85.24C318.353 85.1699 318.269 85.1173 318.176 85.0866C318.084 85.0559 317.985 85.0481 317.888 85.0638C317.791 85.0794 317.699 85.1181 317.619 85.1766C317.54 85.2351 317.475 85.3117 317.43 85.4C315.43 89.36 316.74 97.54 316.71 102.08C316.71 102.258 316.64 102.428 316.514 102.554C316.388 102.679 316.218 102.75 316.04 102.75H267.87C267.754 102.749 267.64 102.773 267.534 102.82C267.428 102.867 267.333 102.935 267.256 103.021C267.179 103.107 267.12 103.208 267.085 103.319C267.049 103.429 267.037 103.545 267.05 103.66L271.97 152.5C272.017 152.987 272.26 153.12 272.7 152.9Z" fill="white"></path><path d="M458.2 175.79C444.99 160.89 430.62 147.11 417.19 132.43C417.107 132.34 417.002 132.274 416.886 132.237C416.769 132.201 416.645 132.197 416.526 132.224C416.407 132.251 416.298 132.31 416.209 132.394C416.12 132.477 416.055 132.583 416.02 132.7C412.22 145.34 414.36 158.51 410.59 171.05C410.549 171.181 410.467 171.295 410.355 171.376C410.244 171.457 410.109 171.5 409.97 171.5H394.24C393.84 171.5 393.657 171.303 393.69 170.91C396.23 141.96 397.57 112.97 400.62 84.06C400.66 83.6867 400.867 83.5 401.24 83.5H477.48C477.773 83.5 477.913 83.65 477.9 83.95C476.79 109.24 455.71 113.08 441.01 128.97C440.783 129.21 440.757 129.467 440.93 129.74C442.51 132.24 444.183 134.34 445.95 136.04C457.89 147.51 469.71 156.9 462.42 175.71C462.37 175.844 462.291 175.965 462.189 176.064C462.087 176.163 461.964 176.237 461.83 176.28C460.19 176.827 458.98 176.663 458.2 175.79ZM417.95 103.14L415.6 125.81C415.533 126.397 415.763 126.55 416.29 126.27C426.68 120.74 435.6 111.71 443.65 103.13C443.89 102.877 443.833 102.75 443.48 102.75H418.38C418.12 102.75 417.977 102.88 417.95 103.14Z" fill="white"></path><path d="M517.53 157.07C517.559 156.942 517.549 156.808 517.502 156.686C517.456 156.563 517.374 156.457 517.268 156.38C517.161 156.303 517.034 156.259 516.903 156.254C516.772 156.249 516.642 156.282 516.53 156.35C499.05 166.82 483.17 179.03 466.3 190.3C465.927 190.547 465.77 190.45 465.83 190.01C470.69 154.41 477.033 119.08 484.86 84.02C484.894 83.8727 484.976 83.7412 485.094 83.6468C485.212 83.5524 485.359 83.5007 485.51 83.5H502.73C503.05 83.5 503.187 83.6567 503.14 83.97C502.353 89.4167 501.74 93.18 501.3 95.26C497.287 114.293 493.51 133.253 489.97 152.14C489.942 152.289 489.957 152.443 490.013 152.583C490.068 152.724 490.163 152.846 490.286 152.935C490.408 153.024 490.554 153.077 490.705 153.086C490.856 153.096 491.007 153.063 491.14 152.99C502.44 146.71 511.26 138.4 523.22 131.83C523.381 131.742 523.521 131.622 523.633 131.477C523.745 131.333 523.826 131.167 523.87 130.99L535.42 84.05C535.507 83.6833 535.743 83.5 536.13 83.5H554.63C554.713 83.5002 554.794 83.5195 554.868 83.5562C554.942 83.593 555.007 83.6463 555.057 83.712C555.108 83.7777 555.142 83.8541 555.158 83.9352C555.174 84.0164 555.171 84.1001 555.15 84.18L532.22 169.72C532.12 170.073 531.887 170.25 531.52 170.25H516.87C515.397 170.25 514.817 169.53 515.13 168.09L517.53 157.07Z" fill="white"></path></svg>